<svg xmlns="http://www.w3.org/2000/svg" version="1.1" xmlns:xlink="http://www.w3.org/1999/xlink" xmlns:svgjs="http://svgjs.dev/svgjs" viewBox="0 0 800 800" opacity="0.11"><defs><linearGradient x1="50%" y1="0%" x2="50%" y2="100%" id="wwwhirl-grad"><stop stop-color="hsl(206, 75%, 49%)" stop-opacity="1" offset="45%"></stop><stop stop-color="hsl(331, 90%, 56%)" stop-opacity="1" offset="100%"></stop></linearGradient></defs><g stroke-width="1" stroke="url(#wwwhirl-grad)" fill="none" stroke-linecap="round"><path d="M-384 457.69909947713217C-333.18518518518516 426.57502540305813 -311.4074074074074 359.24539577342847 -209.77777777777777 350.98798836602106C-108.1481481481481 342.73058095861364 -137.18518518518522 424.94169206972475 -35.55555555555554 429.3879883660211C66.07407407407413 433.8342846623174 37.03703703703701 366.2324328104655 138.66666666666663 366.2324328104655C240.2962962962963 366.2324328104655 211.25925925925924 439.550951328984 312.8888888888889 429.3879883660211C414.5185185185186 419.2250254030581 385.4814814814814 330.1176179956507 487.1111111111111 331.38798836602103C588.7407407407406 332.6583587363914 559.7037037037038 424.2157661437989 661.3333333333333 433.7435439215766C762.9629629629628 443.2713216993544 733.9259259259261 353.89169206972474 835.5555555555557 364.0546550326877C937.185185185185 374.2176179956507 908.1481481481483 466.6824328104655 1009.7777777777778 468.5879883660211C1111.4074074074074 470.4935439215766 1133.185185185185 399.1713216993544 1184 370.5879883660211 " transform="rotate(21, 400, 400)"></path><path d="M-356 455.63841285705564C-307 425.62591285705565 -286 360.70091285705564 -188 352.73841285705566C-89.99999999999994 344.7759128570557 -118 424.05091285705566 -20 428.3384128570557C78 432.6259128570557 50 367.43841285705565 148 367.43841285705565C246 367.43841285705565 218 438.13841285705564 316 428.3384128570557C414 418.5384128570557 386 332.61341285705566 484 333.8384128570557C582 335.06341285705565 554 423.3509128570557 652 432.5384128570557C750 441.7259128570556 722 355.5384128570557 820 365.3384128570557C918 375.13841285705564 890 464.30091285705566 988 466.13841285705564C1086 467.9759128570556 1107 399.20091285705564 1156 371.63841285705564 " transform="rotate(20.25, 400, 400)"></path><path d="M-328 453.57774149576824C-280.8148148148148 424.67681556984235 -260.5925925925926 362.15644519947193 -166.22222222222223 354.48885260687933C-71.85185185185185 346.82126001428674 -98.81481481481484 423.16014890317564 -4.444444444444457 427.28885260687935C89.92592592592598 431.41755631058305 62.96296296296293 368.6444081624349 157.33333333333326 368.6444081624349C251.7037037037037 368.6444081624349 224.74074074074076 436.7258896439164 319.1111111111111 427.28885260687935C413.48148148148164 417.8518155698423 386.5185185185185 335.1092229772497 480.8888888888889 336.28885260687935C575.2592592592592 337.468482236509 548.2962962962963 422.48607482910154 642.6666666666665 431.3332970513238C737.037037037037 440.180519273546 710.0740740740741 357.1851489031756 804.4444444444443 366.62218594021266C898.8148148148148 376.0592229772497 871.851851851852 461.91940816243493 966.2222222222222 463.6888526068793C1060.5925925925926 465.4582970513238 1080.8148148148148 399.230519273546 1128 372.6888526068793 " transform="rotate(19.5, 400, 400)"></path><path d="M-300 451.5170625050863C-254.62962962962962 423.7277106532344 -235.18518518518522 363.6119699124937 -144.44444444444446 356.2392847273085C-53.70370370370364 348.8665995421233 -79.62962962962968 422.2693773199011 11.111111111111086 426.2392847273085C101.8518518518519 430.2091921347159 75.92592592592587 369.8503958384196 166.66666666666674 369.8503958384196C257.4074074074075 369.8503958384196 231.4814814814814 435.31335880138255 322.2222222222222 426.2392847273085C412.96296296296305 417.1652106532344 387.03703703703695 337.60502546804923 477.7777777777778 338.7392847273085C568.5185185185184 339.87354398656777 542.5925925925927 421.62122917175293 633.3333333333334 430.1281736161974C724.0740740740739 438.63511806064184 698.1481481481483 358.8318773199011 788.8888888888889 367.90595139397516C879.6296296296296 376.98002546804923 853.7037037037039 459.5378958384196 944.4444444444443 461.2392847273085C1035.185185185185 462.9406736161974 1054.6296296296296 399.26011806064184 1100 373.7392847273085 " transform="rotate(18.75, 400, 400)"></path><path d="M-272 449.4563873291016C-228.44444444444443 422.7786095513238 -209.77777777777777 365.06749844021266 -122.66666666666666 357.9897206624349C-35.55555555555554 350.9119428846571 -60.44444444444446 421.3786095513238 26.666666666666686 425.1897206624349C113.77777777777777 429.000831773546 88.88888888888886 371.05638732910154 176 371.05638732910154C263.1111111111111 371.05638732910154 238.22222222222217 433.90083177354603 325.33333333333337 425.1897206624349C412.44444444444446 416.47860955132376 387.55555555555554 340.100831773546 474.66666666666663 341.1897206624349C561.7777777777778 342.27860955132377 536.8888888888889 420.7563873291016 624 428.9230539957682C711.1111111111111 437.0897206624349 686.2222222222222 360.4786095513238 773.3333333333333 369.1897206624349C860.4444444444443 377.900831773546 835.5555555555557 457.15638732910156 922.6666666666667 458.7897206624349C1009.7777777777778 460.4230539957682 1028.4444444444443 399.2897206624349 1072 374.7897206624349 " transform="rotate(18, 400, 400)"></path><path d="M-244 447.3957045237223C-202.25925925925924 421.82950082001867 -184.37037037037038 366.52301933853715 -100.88888888888889 359.74014896816675C-17.40740740740739 352.9572785977964 -41.259259259259295 420.48783415335197 42.22222222222223 424.1401489681668C125.70370370370375 427.7924637829816 101.85185185185185 372.262371190389 185.33333333333331 372.262371190389C268.8148148148149 372.262371190389 244.96296296296293 432.4882971163149 328.44444444444446 424.1401489681668C411.925925925926 415.79200082001864 388.074074074074 342.5966304496483 471.55555555555554 343.6401489681668C555.037037037037 344.6836674866853 531.1851851851852 419.8915378570557 614.6666666666666 427.71792674594457C698.148148148148 435.5443156348334 674.2962962962963 362.12533415335196 757.7777777777778 370.4734823015001C841.2592592592591 378.82163044964824 817.4074074074074 454.77487119038904 900.8888888888889 456.3401489681668C984.3703703703702 457.90542674594457 1002.2592592592591 399.31931563483346 1044 375.8401489681668 " transform="rotate(17.25, 400, 400)"></path><path d="M-216 445.33502934773765C-176.07407407407405 420.880399718108 -158.96296296296296 367.9785478662561 -79.11111111111111 361.4905849032932C0.7407407407407618 355.00262194033024 -22.074074074074076 419.5970663847747 57.77777777777777 423.0905849032932C137.62962962962962 426.58410342181173 114.81481481481478 373.46836268107097 194.66666666666669 373.46836268107097C274.5185185185186 373.46836268107097 251.7037037037037 431.0757700884784 331.55555555555554 423.0905849032932C411.4074074074075 415.105399718108 388.5925925925925 345.09243675514506 468.44444444444446 346.0905849032932C548.2962962962962 347.08873305144135 525.4814814814816 419.0266960144043 605.3333333333334 426.5128071255154C685.1851851851851 433.99891823662654 662.3703703703704 363.7720663847747 742.2222222222222 371.75725156995986C822.0740740740739 379.74243675514504 799.2592592592594 452.393362681071 879.1111111111111 453.8905849032932C958.9629629629628 455.3878071255154 976.0740740740739 399.3489182366265 1016 376.8905849032932 " transform="rotate(16.5, 400, 400)"></path><path d="M-188 443.2743427276612C-149.88888888888886 419.9312871721056 -133.55555555555557 369.43406494988335 -57.33333333333334 363.2410093943278C18.888888888888914 357.04795383877223 -2.888888888888914 418.7062871721056 73.33333333333331 422.04100939432783C149.5555555555556 425.37573161655 127.77777777777771 374.67434272766116 204 374.67434272766116C280.2222222222222 374.67434272766116 258.44444444444446 429.66323161655004 334.66666666666663 422.04100939432783C410.8888888888889 414.41878717210557 389.1111111111111 347.58823161655005 465.33333333333337 348.5410093943278C541.5555555555555 349.49378717210556 519.7777777777778 418.1618427276611 596 425.3076760609945C672.2222222222222 432.4535093943278 650.4444444444445 365.41878717210557 726.6666666666666 373.04100939432783C802.8888888888889 380.66323161655004 781.1111111111111 450.01184272766113 857.3333333333333 451.4410093943278C933.5555555555557 452.8701760609945 949.8888888888889 399.3785093943278 988 377.9410093943278 " transform="rotate(15.75, 400, 400)"></path><path d="M-160 441.21365610758465C-123.7037037037037 418.9821746261032 -108.14814814814815 370.8895820335106 -35.55555555555554 364.9914338853624C37.03703703703707 359.0932857372143 16.296296296296305 417.8155079594365 88.88888888888891 420.9914338853624C161.48148148148152 424.16735981128835 140.7407407407407 375.8803227742513 213.33333333333331 375.8803227742513C285.925925925926 375.8803227742513 265.18518518518516 428.25069314462166 337.7777777777778 420.9914338853624C410.37037037037044 413.7321746261032 389.62962962962956 350.08402647795504 462.2222222222222 350.9914338853624C534.8148148148148 351.8988412927698 514.0740740740741 417.29698944091797 586.6666666666666 424.1025449964735C659.2592592592592 430.90810055202905 638.5185185185186 367.0655079594365 711.1111111111111 374.32476721869574C783.7037037037037 381.58402647795504 762.962962962963 447.63032277425134 835.5555555555557 448.9914338853624C908.148148148148 450.3525449964735 923.7037037037037 399.4081005520291 960 378.9914338853624 " transform="rotate(15, 400, 400)"></path><path d="M-132 439.1529618581136C-97.5185185185185 418.03305445070623 -82.74074074074076 372.3450914877432 -13.777777777777771 366.7418507470025C55.18518518518522 361.13861000626173 35.48148148148144 416.9247211173729 104.44444444444446 419.9418507470025C173.40740740740745 422.9589803766321 153.7037037037037 377.08629519144694 222.66666666666669 377.08629519144694C291.6296296296297 377.08629519144694 271.92592592592587 426.8381470432988 340.8888888888889 419.9418507470025C409.85185185185196 413.0455544507062 390.14814814814804 352.57981370996544 459.1111111111111 353.4418507470025C528.074074074074 354.30388778403955 508.37037037037044 416.4321285247803 577.3333333333334 422.89740630255807C646.2962962962962 429.36268408033584 626.5925925925927 368.71222111737285 695.5555555555555 375.6085174136692C764.5185185185184 382.50481370996545 744.8148148148149 445.24879519144696 813.7777777777778 446.5418507470025C882.7407407407406 447.83490630255807 897.5185185185185 399.4376840803358 932 380.0418507470025 " transform="rotate(14.25, 400, 400)"></path><path d="M-104 437.09227142333987C-71.33333333333331 417.08393809000654 -57.33333333333334 373.8006047566732 8 368.49227142333984C73.33333333333337 363.1839380900065 54.66666666666666 416.03393809000653 120 418.8922714233398C185.33333333333337 421.75060475667317 166.66666666666663 378.29227142333986 232 378.29227142333986C297.3333333333333 378.29227142333986 278.6666666666667 425.4256047566732 344 418.8922714233398C409.33333333333337 412.3589380900065 390.66666666666674 355.07560475667316 456 355.8922714233398C521.3333333333333 356.7089380900065 502.66666666666674 415.56727142333983 568 421.69227142333983C633.3333333333334 427.8172714233399 614.6666666666667 370.3589380900065 680 376.8922714233398C745.3333333333334 383.4256047566732 726.6666666666666 442.86727142333984 792 444.09227142333987C857.3333333333335 445.3172714233399 871.3333333333335 399.46727142333987 904 381.09227142333987 " transform="rotate(13.5, 400, 400)"></path><path d="M-76 435.03160387674967C-45.14814814814814 416.13484461749044 -31.925925925925924 375.25614091378674 29.77777777777777 370.2427149878608C91.4814814814815 365.2292890619349 73.85185185185182 415.14317795082377 135.55555555555554 417.8427149878608C197.2592592592593 420.54225202489783 179.62962962962956 379.49827054341637 241.33333333333331 379.49827054341637C303.03703703703707 379.49827054341637 285.4074074074074 424.01308535823114 347.1111111111111 417.8427149878608C408.8148148148148 411.6723446174904 391.1851851851852 357.5714186915645 452.8888888888889 358.3427149878608C514.5925925925925 359.1140112841571 496.96296296296305 414.702437210083 558.6666666666666 420.48715943230525C620.3703703703703 426.2718816545275 602.7407407407408 372.0056779508237 664.4444444444445 378.1760483211941C726.148148148148 384.3464186915645 708.5185185185186 440.4857705434164 770.2222222222222 441.6427149878608C831.9259259259259 442.79965943230525 845.148148148148 399.49688165452744 876 382.1427149878608 " transform="rotate(12.75, 400, 400)"></path><path d="M-48 432.9709172566732C-18.962962962962948 415.185732071488 -6.518518518518519 376.7116579974139 51.55555555555554 371.9931394788954C109.62962962962965 367.27462096037686 93.03703703703701 414.2523987381546 151.1111111111111 416.7931394788954C209.18518518518522 419.33388021963617 192.5925925925926 380.7042505900065 250.66666666666669 380.7042505900065C308.74074074074076 380.7042505900065 292.14814814814815 422.6005468863028 350.22222222222223 416.7931394788954C408.2962962962963 410.985732071488 391.7037037037037 360.06721355296946 449.7777777777778 360.7931394788954C507.85185185185185 361.51906540482133 491.25925925925924 413.8375839233398 549.3333333333334 419.2820283677843C607.4074074074074 424.72647281222874 590.8148148148149 373.65239873815466 648.8888888888889 379.4598061455621C706.9629629629628 385.26721355296945 690.3703703703704 438.10425059000653 748.4444444444445 439.1931394788954C806.5185185185184 440.2820283677843 818.9629629629628 399.52647281222875 848 383.1931394788954 " transform="rotate(12, 400, 400)"></path><path d="M-20 430.9102306365967C7.2222222222222285 414.2366195254856 18.888888888888886 378.16717508104114 73.33333333333331 373.74356396993C127.7777777777778 369.3199528588189 112.2222222222222 413.3616195254856 166.66666666666663 415.74356396993C221.11111111111114 418.12550841437445 205.55555555555554 381.9102306365967 260 381.9102306365967C314.44444444444446 381.9102306365967 298.88888888888886 421.18800841437445 353.3333333333333 415.74356396993C407.77777777777777 410.2991195254856 392.22222222222223 362.56300841437445 446.66666666666674 363.24356396993C501.1111111111111 363.9241195254856 485.55555555555566 412.9727306365967 540 418.07689730326337C594.4444444444443 423.18106396993 578.8888888888889 375.2991195254856 633.3333333333334 380.74356396993C687.7777777777777 386.18800841437445 672.2222222222223 435.7227306365967 726.6666666666666 436.74356396993005C781.1111111111111 437.76439730326337 792.7777777777778 399.55606396993 820 384.24356396993 " transform="rotate(11.25, 400, 400)"></path><path d="M8 428.8495592753093C33.40740740740742 413.28752223827223 44.29629629629629 379.62270742345737 95.11111111111111 375.49400371975366C145.92592592592595 371.36530001605 131.4074074074074 412.4708555716055 182.22222222222223 414.6940037197537C233.03703703703707 416.91715186790185 218.51851851851848 383.1162259419759 269.3333333333333 383.1162259419759C320.14814814814815 383.1162259419759 305.6296296296296 419.7754852012352 356.44444444444446 414.6940037197537C407.2592592592593 409.6125222382722 392.7407407407407 365.0588185345685 443.55555555555554 365.6940037197537C494.3703703703703 366.32918890493886 479.85185185185196 412.1078926086426 530.6666666666666 416.87178149753146C581.4814814814814 421.6356703864204 566.962962962963 376.94585557160553 617.7777777777778 382.027337053087C668.5925925925925 387.1088185345685 654.0740740740741 433.34122594197595 704.8888888888889 434.29400371975373C755.7037037037037 435.24678149753146 766.5925925925925 399.58567038642036 792 385.2940037197537 " transform="rotate(10.5, 400, 400)"></path><path d="M36 426.7888745625814C59.59259259259261 412.33841159961844 69.7037037037037 381.07822641443323 116.88888888888889 377.24443011813696C164.07407407407408 373.41063382184063 150.59259259259258 411.5800782662851 197.77777777777777 413.64443011813694C244.962962962963 415.7087819699888 231.48148148148147 384.32220789591474 278.66666666666663 384.32220789591474C325.85185185185185 384.32220789591474 312.3703703703704 418.36294863665546 359.55555555555554 413.64443011813694C406.7407407407408 408.9259115996184 393.25925925925924 367.5546153033221 440.44444444444446 368.14443011813694C487.62962962962956 368.73424493295175 474.14814814814815 411.24304122924804 521.3333333333333 415.6666523403592C568.5185185185185 420.09026345147026 555.0370370370371 378.5925782662851 602.2222222222222 383.3110967848036C649.4074074074074 388.0296153033221 635.925925925926 430.95970789591473 683.1111111111111 431.8444301181369C730.2962962962963 432.7291523403592 740.4074074074074 399.6152634514703 764 386.3444301181369 " transform="rotate(9.75, 400, 400)"></path><path d="M64 424.728197479248C85.77777777777779 411.3893085903592 95.11111111111111 382.5337530348036 138.66666666666669 378.99486414591473C182.22222222222223 375.45597525702584 169.77777777777777 410.68930859035913 213.33333333333334 412.5948641459147C256.8888888888889 414.50041970147026 244.44444444444446 385.52819747924804 288 385.52819747924804C331.55555555555554 385.52819747924804 319.1111111111111 416.95041970147025 362.6666666666667 412.5948641459147C406.22222222222223 408.23930859035914 393.77777777777777 370.0504197014703 437.3333333333333 370.5948641459147C480.8888888888889 371.1393085903592 468.44444444444446 410.37819747924806 512 414.4615308125814C555.5555555555555 418.54486414591474 543.1111111111111 380.23930859035914 586.6666666666666 384.5948641459147C630.2222222222222 388.95041970147025 617.7777777777778 428.57819747924805 661.3333333333334 429.3948641459147C704.8888888888889 430.2115308125814 714.2222222222222 399.6448641459147 736 387.3948641459147 " transform="rotate(9, 400, 400)"></path><path d="M92 422.6675127665202C111.96296296296298 410.4401979517054 120.51851851851852 383.9892720257794 160.44444444444446 380.745290544298C200.37037037037038 377.50130906281646 188.96296296296296 409.7985312850387 228.88888888888889 411.5452905442979C268.8148148148148 413.29204980355723 257.4074074074074 386.73417943318685 297.33333333333337 386.73417943318685C337.2592592592593 386.73417943318685 325.85185185185185 415.53788313689057 365.77777777777777 411.5452905442979C405.70370370370375 407.55269795170534 394.29629629629625 372.5462164702239 434.22222222222223 373.045290544298C474.1481481481481 373.544364618372 462.7407407407408 409.5133460998535 502.6666666666667 413.2564016554091C542.5925925925926 416.99945721096464 531.1851851851852 381.8860312850387 571.1111111111111 385.8786238776313C611.037037037037 389.8712164702239 599.6296296296297 426.19667943318683 639.5555555555555 426.94529054429796C679.4814814814814 427.6939016554091 688.037037037037 399.67445721096465 708 388.44529054429796 " transform="rotate(8.25, 400, 400)"></path><path d="M120 420.60682614644367C138.14814814814815 409.49108540570296 145.92592592592592 385.44478910940666 182.22222222222223 382.4957150353326C218.51851851851853 379.5466409612585 208.14814814814815 408.9077520723696 244.44444444444446 410.4957150353326C280.74074074074076 412.08367799829557 270.3703703703703 387.94015947977704 306.66666666666663 387.94015947977704C342.962962962963 387.94015947977704 332.5925925925926 414.1253446649622 368.8888888888889 410.4957150353326C405.1851851851852 406.86608540570296 394.8148148148148 375.0420113316289 431.1111111111111 375.4957150353326C467.4074074074074 375.9494187390363 457.03703703703707 408.64849281311035 493.3333333333333 412.0512705908881C529.6296296296296 415.4540483686659 519.2592592592594 383.5327520723696 555.5555555555555 387.16238170199927C591.8518518518518 390.7920113316289 581.4814814814815 423.81515947977704 617.7777777777778 424.4957150353326C654.074074074074 425.1762705908881 661.8518518518518 399.7040483686659 680 389.4957150353326 " transform="rotate(7.5, 400, 400)"></path><path d="M148 418.54614143371583C164.33333333333334 408.54197476704917 171.33333333333331 386.90030810038246 204 384.2461414337158C236.66666666666669 381.5919747670491 227.33333333333331 408.01697476704913 260 409.4461414337158C292.6666666666667 410.8753081003825 283.3333333333333 389.1461414337158 316 389.1461414337158C348.66666666666663 389.1461414337158 339.33333333333337 412.7128081003825 372 409.4461414337158C404.6666666666667 406.17947476704916 395.33333333333337 377.5378081003825 428 377.9461414337158C460.66666666666663 378.35447476704917 451.33333333333337 407.78364143371584 484 410.84614143371584C516.6666666666667 413.90864143371584 507.33333333333337 385.17947476704916 540 388.4461414337158C572.6666666666667 391.71280810038246 563.3333333333333 421.4336414337158 596 422.04614143371583C628.6666666666667 422.65864143371584 635.6666666666667 399.73364143371583 652 390.54614143371583 " transform="rotate(6.75, 400, 400)"></path><path d="M176 416.4854586283366C190.51851851851853 407.592866035744 196.74074074074073 388.35582899870695 225.77777777777777 385.9965697394477C254.81481481481484 383.63731048018843 246.5185185185185 407.1261993690773 275.55555555555554 408.3965697394477C304.5925925925926 409.6669401098181 296.2962962962963 390.35212529500325 325.33333333333337 390.35212529500325C354.3703703703704 390.35212529500325 346.0740740740741 411.3002734431514 375.1111111111111 408.3965697394477C404.14814814814815 405.492866035744 395.85185185185185 380.03360677648476 424.8888888888889 380.3965697394477C453.9259259259259 380.75953270241064 445.6296296296296 406.9187919616699 474.6666666666667 409.64101418389214C503.7037037037037 412.36323640611437 495.40740740740745 386.82619936907736 524.4444444444445 389.72990307278104C553.4814814814814 392.6336067764847 545.1851851851852 419.05212529500324 574.2222222222222 419.5965697394477C603.2592592592591 420.14101418389214 609.4814814814814 399.76323640611434 624 391.5965697394477 " transform="rotate(6, 400, 400)"></path><path d="M204 414.42477963765464C216.7037037037037 406.6437611191361 222.14814814814815 389.8113537117287 247.55555555555554 387.74700185987683C272.962962962963 385.682650008025 265.7037037037037 406.23542778580276 291.1111111111111 407.34700185987685C316.51851851851853 408.4585759339509 309.25925925925924 391.55811297098796 334.66666666666663 391.55811297098796C360.0740740740741 391.55811297098796 352.8148148148148 409.88774260061757 378.22222222222223 407.34700185987685C403.6296296296297 404.8062611191361 396.3703703703703 382.5294092672842 421.77777777777777 382.84700185987685C447.18518518518516 383.16459445246943 439.925925925926 406.0539463043213 465.3333333333333 408.43589074876576C490.7407407407407 410.81783519321016 483.4814814814815 388.47292778580277 508.8888888888889 391.01366852654354C534.2962962962963 393.55440926728426 527.0370370370371 416.670612970988 552.4444444444445 417.14700185987687C577.8518518518518 417.62339074876576 583.2962962962963 399.7928351932102 596 392.64700185987687 " transform="rotate(5.25, 400, 400)"></path><path d="M232 412.3640977859497C242.8888888888889 405.6946533415053 247.55555555555554 391.26687556372747 269.33333333333337 389.497431119283C291.1111111111111 387.7279866748386 284.8888888888889 405.34465334150525 306.6666666666667 406.29743111928303C328.44444444444446 407.2502088970608 322.22222222222223 392.76409778594973 344 392.76409778594973C365.77777777777777 392.76409778594973 359.55555555555554 408.47520889706084 381.33333333333337 406.29743111928303C403.1111111111111 404.1196533415053 396.8888888888889 385.0252088970608 418.66666666666663 385.29743111928303C440.44444444444446 385.5696533415053 434.22222222222223 405.1890977859497 456 407.23076445261637C477.77777777777777 409.27243111928306 471.55555555555554 390.1196533415053 493.3333333333333 392.29743111928303C515.1111111111111 394.47520889706084 508.8888888888889 414.2890977859497 530.6666666666667 414.69743111928307C552.4444444444445 415.10576445261637 557.1111111111111 399.82243111928307 568 393.69743111928307 " transform="rotate(4.5, 400, 400)"></path><path d="M260 410.30341307322186C269.0740740740741 404.7455427028515 272.96296296296293 392.7223945547033 291.1111111111111 391.24785751766626C309.25925925925924 389.77332048062925 304.0740740740741 404.4538760361848 322.22222222222223 405.24785751766626C340.3703703703704 406.0418389991478 335.18518518518516 393.9700797398885 353.3333333333333 393.9700797398885C371.4814814814815 393.9700797398885 366.2962962962963 407.0626723324811 384.44444444444446 405.24785751766626C402.5925925925926 403.4330427028515 397.4074074074074 387.5210056658144 415.55555555555554 387.74785751766626C433.7037037037037 387.9747093695181 428.51851851851853 404.3242464065552 446.66666666666663 406.0256352954441C464.8148148148148 407.72702418433295 459.6296296296297 391.7663760361848 477.77777777777777 393.58119085099963C495.9259259259259 395.3960056658144 490.74074074074076 411.9075797398885 508.8888888888889 412.24785751766626C527.037037037037 412.5881352954441 530.9259259259259 399.85202418433295 540 394.74785751766626 " transform="rotate(3.75, 400, 400)"></path><path d="M288 408.2427302678426C295.25925925925924 403.7964339715463 298.3703703703704 394.1779154530278 312.8888888888889 392.9982858233982C327.4074074074074 391.81865619376856 323.25925925925924 403.563100638213 337.77777777777777 404.1982858233982C352.2962962962963 404.83347100858333 348.14814814814815 395.17606360117594 362.6666666666667 395.17606360117594C377.1851851851852 395.17606360117594 373.03703703703707 405.65013767525 387.55555555555554 404.1982858233982C402.0740740740741 402.7464339715463 397.9259259259259 390.01680434191667 412.44444444444446 390.1982858233982C426.96296296296293 390.37976730487964 422.8148148148148 403.4593969345093 437.33333333333337 404.8205080456204C451.85185185185185 406.1816191567315 447.7037037037037 393.413100638213 462.22222222222223 394.8649524900648C476.7407407407407 396.3168043419167 472.5925925925926 409.52606360117596 487.1111111111111 409.79828582339815C501.62962962962956 410.0705080456204 504.7407407407407 399.8816191567315 512 395.79828582339815 " transform="rotate(3, 400, 400)"></path><path d="M316 406.18204698562624C321.44444444444446 402.847324763404 323.77777777777777 395.6334358745151 334.6666666666667 394.7487136522929C345.55555555555554 393.86399143007066 342.44444444444446 402.672324763404 353.33333333333337 403.1487136522929C364.22222222222223 403.6251025411818 361.1111111111111 396.38204698562623 372 396.38204698562623C382.8888888888889 396.38204698562623 379.77777777777777 404.2376025411818 390.6666666666667 403.1487136522929C401.55555555555554 402.059824763404 398.44444444444446 392.51260254118176 409.3333333333333 392.6487136522929C420.22222222222223 392.784824763404 417.1111111111111 402.5945469856262 428 403.6153803189596C438.8888888888889 404.6362136522929 435.77777777777777 395.059824763404 446.66666666666663 396.1487136522929C457.55555555555554 397.2376025411818 454.44444444444446 407.1445469856262 465.33333333333337 407.3487136522929C476.22222222222223 407.5528803189596 478.55555555555554 399.9112136522929 484 396.8487136522929 " transform="rotate(2.25, 400, 400)"></path><path d="M344 404.1213651339213C347.6296296296296 401.89821698577316 349.1851851851852 397.0889577265139 356.44444444444446 396.4991429116991C363.7037037037037 395.9093280968843 361.6296296296296 401.7815503191065 368.8888888888889 402.09914291169906C376.14814814814815 402.4167355042917 374.0740740740741 397.58803180058794 381.33333333333337 397.58803180058794C388.5925925925926 397.58803180058794 386.51851851851853 402.825068837625 393.77777777777777 402.09914291169906C401.03703703703707 401.3732169857732 398.96296296296293 395.00840217095833 406.22222222222223 395.09914291169906C413.48148148148147 395.18988365243985 411.4074074074074 401.72969846725465 418.6666666666667 402.4102540228102C425.9259259259259 403.09080957836574 423.85185185185185 396.7065503191065 431.1111111111111 397.43247624503243C438.3703703703703 398.15840217095837 436.2962962962963 404.76303180058795 443.55555555555554 404.8991429116991C450.8148148148148 405.0352540228102 452.3703703703703 399.94080957836576 456 397.8991429116991 " transform="rotate(1.5, 400, 400)"></path><path d="M372 402.06068280537926C373.8148148148148 400.94910873130516 374.5925925925926 398.5444791016755 378.22222222222223 398.2495716942681C381.85185185185185 397.9546642868607 380.8148148148148 400.8907753979718 384.44444444444446 401.04957169426814C388.0740740740741 401.2083679905644 387.03703703703707 398.79401613871255 390.6666666666667 398.79401613871255C394.2962962962963 398.79401613871255 393.25925925925924 401.4125346572311 396.8888888888889 401.04957169426814C400.51851851851853 400.68660873130517 399.48148148148147 397.50420132389775 403.1111111111111 397.54957169426814C406.74074074074076 397.5949420646385 405.7037037037037 400.8648494720459 409.33333333333337 401.2051272498237C412.96296296296293 401.5454050276015 411.9259259259259 398.3532753979718 415.55555555555554 398.71623836093477C419.18518518518516 399.07920132389773 418.14814814814815 402.3815161387126 421.77777777777777 402.4495716942681C425.4074074074074 402.5176272498237 426.18518518518516 399.97040502760143 428 398.9495716942681 " transform="rotate(0.75, 400, 400)"></path></g></svg>